# xmcd CD database file
#
# Track frame offsets:
#	150
#	10334
#	21260
#	33576
#	43855
#	55190
#	67543
#	77253
#	88282
#	100382
#	109413
#	123469
#	133546
#	144605
#	157069
#	167575
#	179365
#	193421
#	204788
#	217303
#
# Disc length: 3049 seconds
#
# Revision: 1
# Processed by: cddbd v1.5.2PL0 Copyright (c) Steve Scherf et al.
# Submitted via: CDex 1.70beta2
#
DISCID=220be714
DTITLE=Hank Thompson - Country Legend - (Original artist - Original songs)
DYEAR=2006
DGENRE=Country
TTITLE0=Rub-a-dub-dub
TTITLE1=Humpty dumpty heart
TTITLE2=The wild side of life
TTITLE3=Wake up Irine
TTITLE4=Don't take it out on me
TTITLE5=Breakin' the rules
TTITLE6=The new green light
TTITLE7=Waiting in the lobby of your heart
TTITLE8=The new waers off too fast
TTITLE9=No help wanted
TTITLE10=Yesterday's girl
TTITLE11=A fooler, a faker
TTITLE12=Honky tonk girl
TTITLE13=We've gone too far
TTITLE14=If loving you is wrong
TTITLE15=Annie over
TTITLE16=Yesterday's girl
TTITLE17=Breakin' in another heart
TTITLE18=Most of all
TTITLE19=Green light
EXTD=YEAR: 2006
EXTT0=
EXTT1=
EXTT2=
EXTT3=
EXTT4=
EXTT5=
EXTT6=
EXTT7=
EXTT8=
EXTT9=
EXTT10=
EXTT11=
EXTT12=
EXTT13=
EXTT14=
EXTT15=
EXTT16=
EXTT17=
EXTT18=
EXTT19=
PLAYORDER=
